{
  "accessors": [
    {
      "bufferView": 2,
      "componentType": 5126,
      "count": 747,
      "max": [
        1.5585999488830566,
        2.509500026702881,
        18.49180030822754
      ],
      "min": [
        -4.1149001121521,
        -1.9401999711990356,
        14.66569995880127
      ],
      "type": "VEC3"
    },
    {
      "bufferView": 2,
      "byteOffset": 8964,
      "componentType": 5126,
      "count": 747,
      "max": [
        0.9890407919883728,
        0.9988922476768494,
        0.9985498785972595
      ],
      "min": [
        -0.9989948868751526,
        -0.9998792409896851,
        -0.9986411929130554
      ],
      "type": "VEC3"
    },
    {
      "bufferView": 1,
      "componentType": 5126,
      "count": 747,
      "max": [
        0.883899986743927,
        0.993399977684021
      ],
      "min": [
        0.00279999990016222,
        0.04039999842643738
      ],
      "type": "VEC2"
    },
    {
      "bufferView": 0,
      "componentType": 5125,
      "count": 4284,
      "type": "SCALAR"
    },
    {
      "bufferView": 2,
      "byteOffset": 17928,
      "componentType": 5126,
      "count": 25,
      "max": [
        0.1200999990105629,
        -5.230299949645996,
        11.984999656677246
      ],
      "min": [
        -1.0591000318527222,
        -6.0355000495910645,
        10.898099899291992
      ],
      "type": "VEC3"
    },
    {
      "bufferView": 2,
      "byteOffset": 18228,
      "componentType": 5126,
      "count": 25,
      "max": [
        -0.45371368527412415,
        -0.7804235219955444,
        0.43021297454833984
      ],
      "min": [
        -0.45371368527412415,
        -0.7804235219955444,
        0.43021297454833984
      ],
      "type": "VEC3"
    },
    {
      "bufferView": 1,
      "byteOffset": 5976,
      "componentType": 5126,
      "count": 25,
      "max": [
        0.9934999942779541,
        0.9937000274658203
      ],
      "min": [
        0.008999999612569809,
        0.00800000037997961
      ],
      "type": "VEC2"
    },
    {
      "bufferView": 0,
      "byteOffset": 17136,
      "componentType": 5125,
      "count": 96,
      "type": "SCALAR"
    },
    {
      "bufferView": 2,
      "byteOffset": 18528,
      "componentType": 5126,
      "count": 18,
      "max": [
        1.5047999620437622,
        -0.9027000069618225,
        16.507099151611328
      ],
      "min": [
        1.1748000383377075,
        -1.4076000452041626,
        16.109800338745117
      ],
      "type": "VEC3"
    },
    {
      "bufferView": 2,
      "byteOffset": 18744,
      "componentType": 5126,
      "count": 18,
      "max": [
        0.9808647036552429,
        0.22990603744983673,
        -0.07870206236839294
      ],
      "min": [
        0.49728700518608093,
        -0.7686799168586731,
        -0.45398998260498047
      ],
      "type": "VEC3"
    },
    {
      "bufferView": 1,
      "byteOffset": 6176,
      "componentType": 5126,
      "count": 18,
      "max": [
        1.0041999816894531,
        0.7325999736785889
      ],
      "min": [
        0.07500000298023224,
        0.2142000049352646
      ],
      "type": "VEC2"
    },
    {
      "bufferView": 0,
      "byteOffset": 17520,
      "componentType": 5125,
      "count": 66,
      "type": "SCALAR"
    },
    {
      "bufferView": 2,
      "byteOffset": 18960,
      "componentType": 5126,
      "count": 18,
      "max": [
        0.8359000086784363,
        -1.6588000059127808,
        16.428800582885742
      ],
      "min": [
        0.2379000037908554,
        -1.9018000364303589,
        16.063800811767578
      ],
      "type": "VEC3"
    },
    {
      "bufferView": 2,
      "byteOffset": 19176,
      "componentType": 5126,
      "count": 18,
      "max": [
        0.6229168176651001,
        -0.6758182048797607,
        -0.1752994805574417
      ],
      "min": [
        -0.4934985339641571,
        -0.9431761503219604,
        -0.47178733348846436
      ],
      "type": "VEC3"
    },
    {
      "bufferView": 1,
      "byteOffset": 6320,
      "componentType": 5126,
      "count": 18,
      "max": [
        0.9847000241279602,
        0.7285000085830688
      ],
      "min": [
        0.055399999022483826,
        0.20999999344348907
      ],
      "type": "VEC2"
    },
    {
      "bufferView": 0,
      "byteOffset": 17784,
      "componentType": 5125,
      "count": 66,
      "type": "SCALAR"
    },
    {
      "bufferView": 2,
      "byteOffset": 19392,
      "componentType": 5126,
      "count": 1351,
      "max": [
        3.5801000595092773,
        3.1535000801086426,
        15.466400146484375
      ],
      "min": [
        -3.563999891281128,
        -3.945199966430664,
        3.553299903869629
      ],
      "type": "VEC3"
    },
    {
      "bufferView": 2,
      "byteOffset": 35604,
      "componentType": 5126,
      "count": 1351,
      "max": [
        1.0,
        0.9922500252723694,
        0.9998637437820435
      ],
      "min": [
        -0.9999129772186279,
        -0.9990268349647522,
        -0.999862551689148
      ],
      "type": "VEC3"
    },
    {
      "bufferView": 1,
      "byteOffset": 6464,
      "componentType": 5126,
      "count": 1351,
      "max": [
        0.9952999949455261,
        0.9986000061035156
      ],
      "min": [
        -0.45509999990463257,
        0.003800000064074993
      ],
      "type": "VEC2"
    },
    {
      "bufferView": 0,
      "byteOffset": 18048,
      "componentType": 5125,
      "count": 5556,
      "type": "SCALAR"
    },
    {
      "bufferView": 2,
      "byteOffset": 51816,
      "componentType": 5126,
      "count": 1683,
      "max": [
        5.224299907684326,
        3.6245999336242676,
        14.86139965057373
      ],
      "min": [
        -4.9405999183654785,
        -5.8979997634887695,
        -0.017899999395012856
      ],
      "type": "VEC3"
    },
    {
      "bufferView": 2,
      "byteOffset": 72012,
      "componentType": 5126,
      "count": 1683,
      "max": [
        0.9996194243431091,
        0.9998267292976379,
        0.9996537566184998
      ],
      "min": [
        -0.9999268054962158,
        -0.999377965927124,
        -0.9990745186805725
      ],
      "type": "VEC3"
    },
    {
      "bufferView": 1,
      "byteOffset": 17272,
      "componentType": 5126,
      "count": 1683,
      "max": [
        1.0576000213623047,
        1.9895000457763672
      ],
      "min": [
        -0.2728999853134155,
        0.002400000113993883
      ],
      "type": "VEC2"
    },
    {
      "bufferView": 0,
      "byteOffset": 40272,
      "componentType": 5125,
      "count": 6372,
      "type": "SCALAR"
    },
    {
      "bufferView": 2,
      "byteOffset": 92208,
      "componentType": 5126,
      "count": 693,
      "max": [
        1.6288000345230103,
        0.7598000168800354,
        17.19420051574707
      ],
      "min": [
        -1.5046000480651855,
        -2.0171000957489014,
        14.591300010681152
      ],
      "type": "VEC3"
    },
    {
      "bufferView": 2,
      "byteOffset": 100524,
      "componentType": 5126,
      "count": 693,
      "max": [
        0.9993358850479126,
        0.9914568662643433,
        0.9808591604232788
      ],
      "min": [
        -0.9879218339920044,
        -0.9992908239364624,
        -0.9980184435844421
      ],
      "type": "VEC3"
    },
    {
      "bufferView": 1,
      "byteOffset": 30736,
      "componentType": 5126,
      "count": 693,
      "max": [
        0.9763000011444092,
        0.9901999831199646
      ],
      "min": [
        0.002099999925121665,
        -0.9204000234603882
      ],
      "type": "VEC2"
    },
    {
      "bufferView": 0,
      "byteOffset": 65760,
      "componentType": 5125,
      "count": 3030,
      "type": "SCALAR"
    },
    {
      "bufferView": 2,
      "byteOffset": 108840,
      "componentType": 5126,
      "count": 323,
      "max": [
        10.617300033569336,
        2.3703999519348145,
        7.546599864959717
      ],
      "min": [
        2.77239990234375,
        -4.009500026702881,
        4.7530999183654785
      ],
      "type": "VEC3"
    },
    {
      "bufferView": 2,
      "byteOffset": 112716,
      "componentType": 5126,
      "count": 323,
      "max": [
        0.7469185590744019,
        0.9848083257675171,
        0.9340455532073975
      ],
      "min": [
        -0.8498170375823975,
        -0.9295726418495178,
        -0.934057891368866
      ],
      "type": "VEC3"
    },
    {
      "bufferView": 1,
      "byteOffset": 36280,
      "componentType": 5126,
      "count": 323,
      "max": [
        1.0211000442504883,
        0.9991999864578247
      ],
      "min": [
        -0.023600000888109207,
        0.007899999618530273
      ],
      "type": "VEC2"
    },
    {
      "bufferView": 0,
      "byteOffset": 77880,
      "componentType": 5125,
      "count": 468,
      "type": "SCALAR"
    },
    {
      "bufferView": 2,
      "byteOffset": 116592,
      "componentType": 5126,
      "count": 313,
      "max": [
        3.6633999347686768,
        4.008500099182129,
        8.622400283813477
      ],
      "min": [
        0.6424999833106995,
        1.104099988937378,
        5.525899887084961
      ],
      "type": "VEC3"
    },
    {
      "bufferView": 2,
      "byteOffset": 120348,
      "componentType": 5126,
      "count": 313,
      "max": [
        0.9824050068855286,
        0.9977022409439087,
        0.9665185213088989
      ],
      "min": [
        -0.9981928467750549,
        -0.9975517392158508,
        -0.9795984029769897
      ],
      "type": "VEC3"
    },
    {
      "bufferView": 1,
      "byteOffset": 38864,
      "componentType": 5126,
      "count": 313,
      "max": [
        0.9957000017166138,
        0.9994999766349792
      ],
      "min": [
        0.00800000037997961,
        0.025200000032782555
      ],
      "type": "VEC2"
    },
    {
      "bufferView": 0,
      "byteOffset": 79752,
      "componentType": 5125,
      "count": 1272,
      "type": "SCALAR"
    },
    {
      "bufferView": 2,
      "byteOffset": 124104,
      "componentType": 5126,
      "count": 750,
      "max": [
        1.6062999963760376,
        2.254199981689453,
        15.459799766540527
      ],
      "min": [
        -3.4842000007629395,
        -0.45899999141693115,
        6.427299976348877
      ],
      "type": "VEC3"
    },
    {
      "bufferView": 2,
      "byteOffset": 133104,
      "componentType": 5126,
      "count": 750,
      "max": [
        0.9505926370620728,
        0.9992891550064087,
        0.9999935626983643
      ],
      "min": [
        -0.974138081073761,
        -0.9999212026596069,
        -0.9989853501319885
      ],
      "type": "VEC3"
    },
    {
      "bufferView": 1,
      "byteOffset": 41368,
      "componentType": 5126,
      "count": 750,
      "max": [
        2.9958999156951904,
        0.9959999918937683
      ],
      "min": [
        2.0053999423980713,
        0.006800000090152025
      ],
      "type": "VEC2"
    },
    {
      "bufferView": 0,
      "byteOffset": 84840,
      "componentType": 5125,
      "count": 1800,
      "type": "SCALAR"
    },
    {
      "bufferView": 2,
      "byteOffset": 142104,
      "componentType": 5126,
      "count": 395,
      "max": [
        2.0660998821258545,
        0.5192999839782715,
        17.950599670410156
      ],
      "min": [
        -0.8048999905586243,
        -2.666100025177002,
        15.000200271606445
      ],
      "type": "VEC3"
    },
    {
      "bufferView": 2,
      "byteOffset": 146844,
      "componentType": 5126,
      "count": 395,
      "max": [
        0.997032642364502,
        0.9859961271286011,
        0.9982235431671143
      ],
      "min": [
        -0.9860268235206604,
        -0.9918699860572815,
        -0.9806447625160217
      ],
      "type": "VEC3"
    },
    {
      "bufferView": 1,
      "byteOffset": 47368,
      "componentType": 5126,
      "count": 395,
      "max": [
        1.8700000047683716,
        0.8762999773025513
      ],
      "min": [
        0.5187000036239624,
        0.250900000333786
      ],
      "type": "VEC2"
    },
    {
      "bufferView": 0,
      "byteOffset": 92040,
      "componentType": 5125,
      "count": 1317,
      "type": "SCALAR"
    },
    {
      "bufferView": 2,
      "byteOffset": 151584,
      "componentType": 5126,
      "count": 341,
      "max": [
        1.6434999704360962,
        -3.2407000064849854,
        14.475600242614746
      ],
      "min": [
        -3.641400098800659,
        -7.064599990844727,
        8.394499778747559
      ],
      "type": "VEC3"
    },
    {
      "bufferView": 2,
      "byteOffset": 155676,
      "componentType": 5126,
      "count": 341,
      "max": [
        0.979612410068512,
        0.9954773783683777,
        0.9850588440895081
      ],
      "min": [
        -0.9988877177238464,
        -0.9998473525047302,
        -0.9812320470809937
      ],
      "type": "VEC3"
    },
    {
      "bufferView": 1,
      "byteOffset": 50528,
      "componentType": 5126,
      "count": 341,
      "max": [
        0.9858999848365784,
        0.995199978351593
      ],
      "min": [
        0.0003000000142492354,
        0.009700000286102295
      ],
      "type": "VEC2"
    },
    {
      "bufferView": 0,
      "byteOffset": 97308,
      "componentType": 5125,
      "count": 1314,
      "type": "SCALAR"
    }
  ],
  "asset": {
    "extras": {
      "author": "projectmgame (https://sketchfab.com/projectmgame)",
      "license": "CC-BY-4.0 (http://creativecommons.org/licenses/by/4.0/)",
      "source": "https://sketchfab.com/3d-models/ocarina-of-time-link-c62717add333410987482d44959e56c7",
      "title": "Ocarina of Time Link"
    },
    "generator": "Sketchfab-12.66.0",
    "version": "2.0"
  },
  "bufferViews": [
    {
      "buffer": 0,
      "byteLength": 102564,
      "name": "floatBufferViews",
      "target": 34963
    },
    {
      "buffer": 0,
      "byteLength": 53256,
      "byteOffset": 102564,
      "byteStride": 8,
      "name": "floatBufferViews",
      "target": 34962
    },
    {
      "buffer": 0,
      "byteLength": 159768,
      "byteOffset": 155820,
      "byteStride": 12,
      "name": "floatBufferViews",
      "target": 34962
    }
  ],
  "buffers": [
    {
      "byteLength": 315588,
      "uri": "scene.bin"
    }
  ],
  "images": [
    {
      "uri": "textures/BodyA_baseColor.png"
    },
    {
      "uri": "textures/BodyB_baseColor.png"
    },
    {
      "uri": "textures/BodyC_baseColor.png"
    },
    {
      "uri": "textures/Face_baseColor.png"
    },
    {
      "uri": "textures/FitLink_Blade_baseColor.png"
    },
    {
      "uri": "textures/FitLink_EyeL_baseColor.png"
    },
    {
      "uri": "textures/FitLink_EyeR_baseColor.png"
    },
    {
      "uri": "textures/FitLink_Grip_baseColor.png"
    },
    {
      "uri": "textures/FitLink_Sheath_baseColor.png"
    },
    {
      "uri": "textures/Shield_baseColor.png"
    }
  ],
  "materials": [
    {
      "doubleSided": true,
      "name": "BodyA",
      "pbrMetallicRoughness": {
        "baseColorTexture": {
          "index": 0
        },
        "metallicFactor": 0.0,
        "roughnessFactor": 0.6
      }
    },
    {
      "doubleSided": true,
      "name": "BodyB",
      "pbrMetallicRoughness": {
        "baseColorTexture": {
          "index": 1
        },
        "metallicFactor": 0.0,
        "roughnessFactor": 0.6
      }
    },
    {
      "doubleSided": true,
      "name": "BodyC",
      "pbrMetallicRoughness": {
        "baseColorTexture": {
          "index": 2
        },
        "metallicFactor": 0.0,
        "roughnessFactor": 0.6
      }
    },
    {
      "alphaMode": "BLEND",
      "doubleSided": true,
      "name": "Courage",
      "pbrMetallicRoughness": {
        "baseColorFactor": [
          0.8,
          0.8,
          0.8,
          0.0
        ],
        "metallicFactor": 0.0,
        "roughnessFactor": 0.6
      }
    },
    {
      "doubleSided": true,
      "name": "Face",
      "pbrMetallicRoughness": {
        "baseColorTexture": {
          "index": 3
        },
        "metallicFactor": 0.0,
        "roughnessFactor": 0.6
      }
    },
    {
      "name": "FitLink_Blade",
      "pbrMetallicRoughness": {
        "baseColorTexture": {
          "index": 4
        },
        "metallicFactor": 0.0,
        "roughnessFactor": 0.6
      }
    },
    {
      "doubleSided": true,
      "name": "FitLink_EyeL",
      "pbrMetallicRoughness": {
        "baseColorTexture": {
          "index": 5
        },
        "metallicFactor": 0.0,
        "roughnessFactor": 0.6
      }
    },
    {
      "doubleSided": true,
      "name": "FitLink_EyeR",
      "pbrMetallicRoughness": {
        "baseColorTexture": {
          "index": 6
        },
        "metallicFactor": 0.0,
        "roughnessFactor": 0.6
      }
    },
    {
      "doubleSided": true,
      "name": "FitLink_Grip",
      "pbrMetallicRoughness": {
        "baseColorTexture": {
          "index": 7
        },
        "metallicFactor": 0.0,
        "roughnessFactor": 0.6
      }
    },
    {
      "doubleSided": true,
      "name": "FitLink_Sheath",
      "pbrMetallicRoughness": {
        "baseColorTexture": {
          "index": 8
        },
        "metallicFactor": 0.0,
        "roughnessFactor": 0.6
      }
    },
    {
      "doubleSided": true,
      "name": "Hair",
      "pbrMetallicRoughness": {
        "baseColorTexture": {
          "index": 1
        },
        "metallicFactor": 0.0,
        "roughnessFactor": 0.6
      }
    },
    {
      "doubleSided": true,
      "name": "Shield",
      "pbrMetallicRoughness": {
        "baseColorTexture": {
          "index": 9
        },
        "metallicFactor": 0.0,
        "roughnessFactor": 0.6
      }
    }
  ],
  "meshes": [
    {
      "name": "Object_0",
      "primitives": [
        {
          "attributes": {
            "NORMAL": 1,
            "POSITION": 0,
            "TEXCOORD_0": 2
          },
          "indices": 3,
          "material": 2,
          "mode": 4
        }
      ]
    },
    {
      "name": "Object_1",
      "primitives": [
        {
          "attributes": {
            "NORMAL": 5,
            "POSITION": 4,
            "TEXCOORD_0": 6
          },
          "indices": 7,
          "material": 3,
          "mode": 4
        }
      ]
    },
    {
      "name": "Object_2",
      "primitives": [
        {
          "attributes": {
            "NORMAL": 9,
            "POSITION": 8,
            "TEXCOORD_0": 10
          },
          "indices": 11,
          "material": 6,
          "mode": 4
        }
      ]
    },
    {
      "name": "Object_3",
      "primitives": [
        {
          "attributes": {
            "NORMAL": 13,
            "POSITION": 12,
            "TEXCOORD_0": 14
          },
          "indices": 15,
          "material": 7,
          "mode": 4
        }
      ]
    },
    {
      "name": "Object_4",
      "primitives": [
        {
          "attributes": {
            "NORMAL": 17,
            "POSITION": 16,
            "TEXCOORD_0": 18
          },
          "indices": 19,
          "material": 0,
          "mode": 4
        }
      ]
    },
    {
      "name": "Object_5",
      "primitives": [
        {
          "attributes": {
            "NORMAL": 21,
            "POSITION": 20,
            "TEXCOORD_0": 22
          },
          "indices": 23,
          "material": 1,
          "mode": 4
        }
      ]
    },
    {
      "name": "Object_6",
      "primitives": [
        {
          "attributes": {
            "NORMAL": 25,
            "POSITION": 24,
            "TEXCOORD_0": 26
          },
          "indices": 27,
          "material": 4,
          "mode": 4
        }
      ]
    },
    {
      "name": "Object_7",
      "primitives": [
        {
          "attributes": {
            "NORMAL": 29,
            "POSITION": 28,
            "TEXCOORD_0": 30
          },
          "indices": 31,
          "material": 5,
          "mode": 4
        }
      ]
    },
    {
      "name": "Object_8",
      "primitives": [
        {
          "attributes": {
            "NORMAL": 33,
            "POSITION": 32,
            "TEXCOORD_0": 34
          },
          "indices": 35,
          "material": 8,
          "mode": 4
        }
      ]
    },
    {
      "name": "Object_9",
      "primitives": [
        {
          "attributes": {
            "NORMAL": 37,
            "POSITION": 36,
            "TEXCOORD_0": 38
          },
          "indices": 39,
          "material": 9,
          "mode": 4
        }
      ]
    },
    {
      "name": "Object_10",
      "primitives": [
        {
          "attributes": {
            "NORMAL": 41,
            "POSITION": 40,
            "TEXCOORD_0": 42
          },
          "indices": 43,
          "material": 10,
          "mode": 4
        }
      ]
    },
    {
      "name": "Object_11",
      "primitives": [
        {
          "attributes": {
            "NORMAL": 45,
            "POSITION": 44,
            "TEXCOORD_0": 46
          },
          "indices": 47,
          "material": 11,
          "mode": 4
        }
      ]
    }
  ],
  "nodes": [
    {
      "children": [
        1
      ],
      "matrix": [
        0.9999595880508423,
        -0.008991928771138191,
        -1.996609271501402e-18,
        0.0,
        0.0,
        2.220446049250313e-16,
        -1.0,
        0.0,
        0.008991928771138191,
        0.9999595880508423,
        2.2203563166974633e-16,
        0.0,
        -0.08039965480566025,
        0.008864663541316986,
        1.968350713825059e-18,
        1.0
      ],
      "name": "Sketchfab_model"
    },
    {
      "children": [
        2,
        3,
        4,
        5,
        6,
        7,
        8,
        9,
        10,
        11,
        12,
        13
      ],
      "name": "pose.obj.cleaner"
    },
    {
      "mesh": 0,
      "name": "Object_2"
    },
    {
      "mesh": 1,
      "name": "Object_3"
    },
    {
      "mesh": 2,
      "name": "Object_4"
    },
    {
      "mesh": 3,
      "name": "Object_5"
    },
    {
      "mesh": 4,
      "name": "Object_6"
    },
    {
      "mesh": 5,
      "name": "Object_7"
    },
    {
      "mesh": 6,
      "name": "Object_8"
    },
    {
      "mesh": 7,
      "name": "Object_9"
    },
    {
      "mesh": 8,
      "name": "Object_10"
    },
    {
      "mesh": 9,
      "name": "Object_11"
    },
    {
      "mesh": 10,
      "name": "Object_12"
    },
    {
      "mesh": 11,
      "name": "Object_13"
    }
  ],
  "samplers": [
    {
      "magFilter": 9729,
      "minFilter": 9987,
      "wrapS": 10497,
      "wrapT": 10497
    }
  ],
  "scene": 0,
  "scenes": [
    {
      "name": "Sketchfab_Scene",
      "nodes": [
        0
      ]
    }
  ],
  "textures": [
    {
      "sampler": 0,
      "source": 0
    },
    {
      "sampler": 0,
      "source": 1
    },
    {
      "sampler": 0,
      "source": 2
    },
    {
      "sampler": 0,
      "source": 3
    },
    {
      "sampler": 0,
      "source": 4
    },
    {
      "sampler": 0,
      "source": 5
    },
    {
      "sampler": 0,
      "source": 6
    },
    {
      "sampler": 0,
      "source": 7
    },
    {
      "sampler": 0,
      "source": 8
    },
    {
      "sampler": 0,
      "source": 9
    }
  ]
}
